<svg xmlns="http://www.w3.org/2000/svg" viewBox="0 0 1240 870" role="img" aria-label="Quokkaroo quokka logo">
  <path fill="currentColor" fill-rule="evenodd" d="M 1205,160 C 1209,168 1206,178 1198,185 C 1190,192 1173,197 1160,205 C 1147,213 1134,220 1120,235 C 1106,250 1091,272 1078,295 C 1065,318 1051,348 1040,370 C 1029,392 1019,410 1010,425 C 1001,440 995,451 985,460 C 975,469 960,479 952,480 C 944,481 944,461 936,468 C 928,475 918,507 905,520 C 892,533 871,537 858,545 C 845,553 835,553 825,566 C 815,579 804,607 800,622 C 796,637 788,642 798,655 C 808,668 838,685 860,700 C 882,715 916,736 930,745 C 944,754 949,753 945,757 C 941,761 934,768 905,768 C 876,768 803,763 770,757 C 737,751 740,742 705,733 C 670,724 598,709 560,702 C 522,695 508,693 480,690 C 452,687 436,675 392,686 C 348,697 272,740 218,758 C 164,776 94,792 65,795 C 36,798 31,785 44,773 C 57,761 104,738 145,722 C 186,706 251,698 290,679 C 329,660 369,645 380,610 C 391,575 359,517 356,470 C 353,423 353,377 360,330 C 367,283 380,227 400,190 C 420,153 447,120 480,108 C 513,96 560,116 600,116 C 640,116 683,116 720,110 C 757,104 790,90 820,82 C 850,74 878,70 898,62 C 918,54 931,42 942,34 C 953,26 956,16 962,12 C 968,8 974,7 980,10 C 986,13 991,21 996,28 C 1001,35 1005,47 1010,52 C 1015,57 1021,64 1026,60 C 1031,56 1034,34 1038,26 C 1042,18 1047,14 1052,12 C 1057,10 1061,10 1066,16 C 1071,22 1075,35 1080,46 C 1085,57 1085,74 1094,84 C 1103,94 1123,100 1136,108 C 1149,116 1160,126 1172,135 C 1184,144 1201,152 1205,160 Z
    M 1088,124 a 12,12 0 1,0 24,0 a 12,12 0 1,0 -24,0 Z"/>
</svg>